<svg width="185" height="72" viewBox="0 0 185 72" fill="none" xmlns="http://www.w3.org/2000/svg">
<path d="M167.368 59.6784H17.9324C14.6448 59.6784 11.955 56.9929 11.955 53.7106V17.9038C11.955 14.6215 14.6448 11.936 17.9324 11.936H167.368C170.655 11.936 173.345 14.6215 173.345 17.9038V53.7106C173.345 56.9929 170.655 59.6784 167.368 59.6784Z" fill="#979797"/>
<path d="M167.368 12.8909C170.141 12.8909 172.389 15.1348 172.389 17.9038V53.7106C172.389 56.4796 170.141 58.7235 167.368 58.7235H17.9324C15.1589 58.7235 12.9113 56.4796 12.9113 53.7106V17.9038C12.9113 15.1348 15.1589 12.8909 17.9324 12.8909H167.368ZM167.368 11.936H17.9324C14.6448 11.936 11.955 14.6215 11.955 17.9038V53.7106C11.955 56.9929 14.6448 59.6784 17.9324 59.6784H167.368C170.655 59.6784 173.345 56.9929 173.345 53.7106V17.9038C173.345 14.6215 170.655 11.936 167.368 11.936Z" fill="#A6A6A6"/>
<path d="M93.415 37.895C90.6056 37.895 88.3102 40.0315 88.3102 42.9676C88.3102 45.8919 90.6056 48.0403 93.415 48.0403C96.2243 48.0403 98.5197 45.8919 98.5197 42.9676C98.5197 40.0315 96.2243 37.895 93.415 37.895ZM93.415 46.047C91.8728 46.047 90.5458 44.7818 90.5458 42.9676C90.5458 41.1415 91.8728 39.8882 93.415 39.8882C94.9571 39.8882 96.2841 41.1415 96.2841 42.9676C96.2841 44.7818 94.9452 46.047 93.415 46.047ZM82.273 37.895C79.4637 37.895 77.1683 40.0315 77.1683 42.9676C77.1683 45.8919 79.4637 48.0403 82.273 48.0403C85.0824 48.0403 87.3778 45.8919 87.3778 42.9676C87.3778 40.0315 85.0824 37.895 82.273 37.895ZM82.273 46.047C80.7309 46.047 79.4039 44.7818 79.4039 42.9676C79.4039 41.1415 80.7309 39.8882 82.273 39.8882C83.8152 39.8882 85.1422 41.1415 85.1422 42.9676C85.1422 44.7818 83.8152 46.047 82.273 46.047ZM69.0271 39.4586V41.607H74.1916C74.0362 42.8125 73.6297 43.7076 73.02 44.3164C72.2668 45.0683 71.0953 45.8919 69.039 45.8919C65.859 45.8919 63.3724 43.3376 63.3724 40.1628C63.3724 36.9879 65.859 34.4337 69.039 34.4337C70.7486 34.4337 72.0038 35.1021 72.9244 35.9734L74.4426 34.4576C73.1515 33.2282 71.442 32.2853 69.0271 32.2853C64.6755 32.2853 61.0173 35.8182 61.0173 40.1747C61.0173 44.5193 64.6755 48.0641 69.0271 48.0641C71.3822 48.0641 73.1515 47.3002 74.5383 45.856C75.9609 44.4357 76.4032 42.4305 76.4032 40.8192C76.4032 40.3179 76.3673 39.8524 76.2837 39.4705H69.0271V39.4586ZM123.194 41.1295C122.776 39.9957 121.485 37.895 118.843 37.895C116.225 37.895 114.049 39.9479 114.049 42.9676C114.049 45.8083 116.201 48.0403 119.094 48.0403C121.425 48.0403 122.776 46.6199 123.326 45.7964L121.593 44.6386C121.019 45.486 120.23 46.047 119.094 46.047C117.958 46.047 117.145 45.5218 116.631 44.5073L123.434 41.7025L123.194 41.1295ZM116.261 42.8244C116.201 40.867 117.779 39.8644 118.915 39.8644C119.799 39.8644 120.552 40.306 120.803 40.9386L116.261 42.8244ZM110.738 47.7419H112.973V32.8224H110.738V47.7419ZM107.079 39.0289H106.996C106.494 38.4321 105.537 37.895 104.318 37.895C101.771 37.895 99.4402 40.127 99.4402 42.9915C99.4402 45.8322 101.771 48.0522 104.318 48.0522C105.525 48.0522 106.494 47.5151 106.996 46.8944H107.067V47.6225C107.067 49.568 106.027 50.6064 104.354 50.6064C102.991 50.6064 102.142 49.6277 101.795 48.8041L99.8466 49.6158C100.409 50.9645 101.891 52.6116 104.354 52.6116C106.972 52.6116 109.183 51.0719 109.183 47.3241V38.2053H107.067V39.0289H107.079ZM104.509 46.047C102.967 46.047 101.676 44.758 101.676 42.9915C101.676 41.2012 102.967 39.9002 104.509 39.9002C106.027 39.9002 107.223 41.2131 107.223 42.9915C107.235 44.758 106.039 46.047 104.509 46.047ZM133.667 32.8224H128.323V47.7419H130.559V42.0844H133.679C136.154 42.0844 138.58 40.2941 138.58 37.4534C138.58 34.6127 136.13 32.8224 133.667 32.8224ZM133.715 40.0076H130.547V34.8872H133.715C135.388 34.8872 136.333 36.2718 136.333 37.4415C136.333 38.6111 135.388 40.0076 133.715 40.0076ZM147.511 37.8711C145.897 37.8711 144.223 38.5873 143.53 40.1508L145.514 40.9744C145.933 40.1508 146.722 39.8763 147.546 39.8763C148.694 39.8763 149.878 40.5686 149.89 41.7979V41.9531C149.483 41.7263 148.622 41.3802 147.558 41.3802C145.419 41.3802 143.255 42.5499 143.255 44.7341C143.255 46.7273 145 48.0164 146.961 48.0164C148.455 48.0164 149.292 47.348 149.806 46.5602H149.878V47.718H152.03V42.0008C152.041 39.3511 150.057 37.8711 147.511 37.8711ZM147.236 46.047C146.506 46.047 145.49 45.677 145.49 44.7818C145.49 43.636 146.757 43.1944 147.857 43.1944C148.838 43.1944 149.304 43.4092 149.89 43.6957C149.722 45.0683 148.527 46.047 147.236 46.047ZM159.884 38.1934L157.326 44.6625H157.254L154.6 38.1934H152.197L156.178 47.2406L153.906 52.2655H156.238L162.37 38.1934H159.884ZM139.8 47.7419H142.035V32.8224H139.8V47.7419Z" fill="white"/>
<path d="M24.3333 22.6049C24.3333 22.1478 24.423 21.7895 24.5621 21.5252L38.8771 35.8056L24.5595 50.0886C24.4231 49.8305 24.3333 49.4725 24.3333 49.0064V22.6049Z" stroke="white" stroke-width="0.895169"/>
<path d="M50.0016 34.4651L50.0028 34.4658C50.758 34.8913 51.0302 35.3906 51.0302 35.7961C51.0302 36.2023 50.7572 36.7048 50.0013 37.1362C50.0011 37.1363 50.0009 37.1364 50.0007 37.1365L44.3375 40.3509L39.7858 35.8066L44.3451 31.2546L50.0016 34.4651Z" stroke="white" stroke-width="0.895169"/>
<path d="M25.1279 50.6203L39.3332 36.4378L43.6456 40.7432L26.7032 50.3594L26.7028 50.3596C26.0343 50.7399 25.5047 50.774 25.1279 50.6203Z" stroke="white" stroke-width="0.895169"/>
<path d="M26.6896 21.2518L43.6438 30.868L39.3314 35.1735L25.1144 20.9908C25.4912 20.8371 26.0208 20.8713 26.6891 21.2515L26.6896 21.2518Z" stroke="white" stroke-width="0.895169"/>
<g opacity="0.2">
<mask id="path-8-inside-1" fill="white">
<path d="M44.2696 40.7361L26.9112 50.5829C25.9428 51.132 25.0701 51.0962 24.5202 50.5949L24.4365 50.6784L24.5202 50.762C25.0821 51.2633 25.9428 51.2991 26.9112 50.75L44.3772 40.8435L44.2696 40.7361Z"/>
</mask>
<path d="M44.2696 40.7361L26.9112 50.5829C25.9428 51.132 25.0701 51.0962 24.5202 50.5949L24.4365 50.6784L24.5202 50.762C25.0821 51.2633 25.9428 51.2991 26.9112 50.75L44.3772 40.8435L44.2696 40.7361Z" fill="black"/>
<path d="M44.2696 40.7361L44.9021 40.1026L44.4202 39.6215L43.8279 39.9575L44.2696 40.7361ZM26.9112 50.5829L27.3527 51.3617L27.3529 51.3616L26.9112 50.5829ZM24.5202 50.5949L25.1233 49.9333L24.4921 49.358L23.8877 49.9614L24.5202 50.5949ZM24.4365 50.6784L23.8041 50.0449L23.1695 50.6784L23.8041 51.3119L24.4365 50.6784ZM24.5202 50.762L23.8877 51.3955L23.9055 51.4132L23.9243 51.4299L24.5202 50.762ZM26.9112 50.75L27.3527 51.5288L27.3528 51.5287L26.9112 50.75ZM44.3772 40.8435L44.8188 41.6221L45.8425 41.0415L45.0097 40.21L44.3772 40.8435ZM43.8279 39.9575L26.4695 49.8043L27.3529 51.3616L44.7113 41.5147L43.8279 39.9575ZM26.4697 49.8042C25.6949 50.2435 25.2816 50.0777 25.1233 49.9333L23.9172 51.2564C24.8586 52.1146 26.1907 52.0205 27.3527 51.3617L26.4697 49.8042ZM23.8877 49.9614L23.8041 50.0449L25.069 51.3119L25.1527 51.2284L23.8877 49.9614ZM23.8041 51.3119L23.8877 51.3955L25.1527 50.1285L25.069 50.0449L23.8041 51.3119ZM23.9243 51.4299C24.8733 52.2767 26.1855 52.1905 27.3527 51.5288L26.4697 49.9713C25.7001 50.4076 25.2908 50.2499 25.1162 50.094L23.9243 51.4299ZM27.3528 51.5287L44.8188 41.6221L43.9356 40.0649L26.4695 49.9714L27.3528 51.5287ZM45.0097 40.21L44.9021 40.1026L43.6371 41.3696L43.7447 41.477L45.0097 40.21Z" fill="white" mask="url(#path-8-inside-1)"/>
</g>
<g opacity="0.12">
<mask id="path-10-inside-2" fill="white">
<path d="M24.4366 50.5113C24.09 50.1413 23.8867 49.5684 23.8867 48.8403V49.0194C23.8867 49.7594 24.09 50.3323 24.4366 50.6904L24.5203 50.6068L24.4366 50.5113Z"/>
</mask>
<path d="M24.4366 50.5113C24.09 50.1413 23.8867 49.5684 23.8867 48.8403V49.0194C23.8867 49.7594 24.09 50.3323 24.4366 50.6904L24.5203 50.6068L24.4366 50.5113Z" fill="black"/>
<path d="M24.4366 50.5113L25.1099 49.9213L25.1 49.9101L25.0899 49.8993L24.4366 50.5113ZM24.4366 50.6904L23.7935 51.313L24.4258 51.9661L25.0691 51.3238L24.4366 50.6904ZM24.5203 50.6068L25.1528 51.2403L25.7464 50.6476L25.1935 50.0168L24.5203 50.6068ZM25.0899 49.8993C24.9417 49.7411 24.7819 49.413 24.7819 48.8403H22.9915C22.9915 49.7238 23.2382 50.5415 23.7834 51.1234L25.0899 49.8993ZM22.9915 48.8403V49.0194H24.7819V48.8403H22.9915ZM22.9915 49.0194C22.9915 49.9077 23.2348 50.736 23.7935 51.313L25.0798 50.0677C24.9451 49.9286 24.7819 49.6111 24.7819 49.0194H22.9915ZM25.0691 51.3238L25.1528 51.2403L23.8879 49.9733L23.8042 50.0569L25.0691 51.3238ZM25.1935 50.0168L25.1099 49.9213L23.7634 51.1013L23.8471 51.1968L25.1935 50.0168Z" fill="white" mask="url(#path-10-inside-2)"/>
</g>
<g opacity="0.12">
<mask id="path-12-inside-3" fill="white">
<path d="M50.2217 37.3569L44.2562 40.7347L44.3638 40.8421L50.2097 37.524C51.0466 37.0466 51.465 36.4259 51.465 35.8053C51.4052 36.3663 50.9868 36.9272 50.2217 37.3569Z"/>
</mask>
<path d="M50.2217 37.3569L44.2562 40.7347L44.3638 40.8421L50.2097 37.524C51.0466 37.0466 51.465 36.4259 51.465 35.8053C51.4052 36.3663 50.9868 36.9272 50.2217 37.3569Z" fill="black"/>
<path d="M50.2217 37.3569L49.7833 36.5764L49.7806 36.578L50.2217 37.3569ZM44.2562 40.7347L43.8152 39.9557L42.7903 40.536L43.6238 41.3682L44.2562 40.7347ZM44.3638 40.8421L43.7313 41.4756L44.2134 41.9568L44.8057 41.6206L44.3638 40.8421ZM50.2097 37.524L50.6516 38.3025L50.6533 38.3016L50.2097 37.524ZM51.465 35.8053H52.3602L50.5749 35.7105L51.465 35.8053ZM49.7806 36.578L43.8152 39.9557L44.6973 41.5137L50.6628 38.1359L49.7806 36.578ZM43.6238 41.3682L43.7313 41.4756L44.9963 40.2086L44.8887 40.1012L43.6238 41.3682ZM44.8057 41.6206L50.6516 38.3025L49.7679 36.7455L43.9219 40.0636L44.8057 41.6206ZM50.6533 38.3016C51.6466 37.7349 52.3602 36.8674 52.3602 35.8053H50.5698C50.5698 35.9845 50.4466 36.3583 49.7661 36.7465L50.6533 38.3016ZM50.5749 35.7105C50.5567 35.8804 50.4018 36.2291 49.7834 36.5764L50.66 38.1374C51.5718 37.6254 52.2537 36.8521 52.3551 35.9001L50.5749 35.7105Z" fill="white" mask="url(#path-12-inside-3)"/>
</g>
<g opacity="0.25">
<mask id="path-14-inside-4" fill="white">
<path d="M26.9115 21.0297L50.2235 34.2543C50.9766 34.684 51.407 35.233 51.4787 35.8059C51.4787 35.1853 51.0603 34.5527 50.2235 34.0872L26.9115 20.8626C25.2379 19.9197 23.875 20.7074 23.875 22.6171V22.7961C23.875 20.8745 25.2498 20.0868 26.9115 21.0297Z"/>
</mask>
<path d="M26.9115 21.0297L50.2235 34.2543C50.9766 34.684 51.407 35.233 51.4787 35.8059C51.4787 35.1853 51.0603 34.5527 50.2235 34.0872L26.9115 20.8626C25.2379 19.9197 23.875 20.7074 23.875 22.6171V22.7961C23.875 20.8745 25.2498 20.0868 26.9115 21.0297Z" fill="white"/>
<path d="M26.9115 21.0297L26.4697 21.8082L26.4698 21.8083L26.9115 21.0297ZM50.2235 34.2543L50.667 33.4768L50.6652 33.4757L50.2235 34.2543ZM51.4787 35.8059L50.5905 35.9171L52.3739 35.8059H51.4787ZM50.2235 34.0872L49.7817 34.8658L49.7883 34.8695L50.2235 34.0872ZM26.9115 20.8626L27.3532 20.084L27.3509 20.0827L26.9115 20.8626ZM26.4698 21.8083L49.7818 35.0329L50.6652 33.4757L27.3532 20.2511L26.4698 21.8083ZM49.7799 35.0318C50.3987 35.3849 50.567 35.7299 50.5905 35.9171L52.367 35.6947C52.2469 34.7362 51.5545 33.9831 50.667 33.4768L49.7799 35.0318ZM52.3739 35.8059C52.3739 34.7489 51.6664 33.8655 50.6586 33.3049L49.7883 34.8695C50.4542 35.2399 50.5836 35.6216 50.5836 35.8059H52.3739ZM50.6652 33.3086L27.3532 20.084L26.4698 21.6412L49.7818 34.8658L50.6652 33.3086ZM27.3509 20.0827C26.3474 19.5173 25.2352 19.3649 24.3177 19.895C23.398 20.4266 22.9798 21.467 22.9798 22.6171H24.7702C24.7702 21.8575 25.0335 21.5492 25.2135 21.4452C25.396 21.3397 25.802 21.265 26.4721 21.6425L27.3509 20.0827ZM22.9798 22.6171V22.7961H24.7702V22.6171H22.9798ZM24.7702 22.7961C24.7702 22.0316 25.0359 21.7192 25.2187 21.6134C25.4031 21.5066 25.8084 21.4329 26.4697 21.8082L27.3533 20.2511C26.353 19.6835 25.24 19.5322 24.3216 20.064C23.4015 20.5967 22.9798 21.6391 22.9798 22.7961H24.7702Z" fill="white" mask="url(#path-14-inside-4)"/>
</g>
</svg>
