<svg width="62" height="29" viewBox="0 0 62 29" fill="none" xmlns="http://www.w3.org/2000/svg">
<rect x="0.453186" y="0.221558" width="60.9294" height="27.8198" rx="4" fill="#F4F4F4"/>
<path d="M38.0816 18.598C37.5869 18.878 37.0269 19.018 36.4016 19.018C35.7763 19.018 35.2163 18.878 34.7216 18.598C34.2269 18.318 33.8349 17.9446 33.5456 17.478C33.2563 17.0113 33.0369 16.498 32.8876 15.938C32.7383 15.378 32.6636 14.7946 32.6636 14.188C32.6636 13.5813 32.7383 12.998 32.8876 12.438C33.0369 11.878 33.2563 11.3693 33.5456 10.912C33.8349 10.4453 34.2269 10.072 34.7216 9.79198C35.2163 9.51198 35.7763 9.37197 36.4016 9.37197C37.0269 9.37197 37.5869 9.51198 38.0816 9.79198C38.5763 10.072 38.9683 10.4453 39.2576 10.912C39.5469 11.3693 39.7663 11.878 39.9156 12.438C40.0649 12.998 40.1396 13.5813 40.1396 14.188C40.1396 14.7946 40.0649 15.378 39.9156 15.938C39.7663 16.498 39.5469 17.0113 39.2576 17.478C38.9683 17.9446 38.5763 18.318 38.0816 18.598ZM34.8336 16.61C35.1696 17.2446 35.6923 17.562 36.4016 17.562C37.1109 17.562 37.6336 17.2446 37.9696 16.61C38.3056 15.9753 38.4736 15.168 38.4736 14.188C38.4736 13.5626 38.4083 13.0073 38.2776 12.522C38.1563 12.0366 37.9323 11.6353 37.6056 11.318C37.2883 10.9913 36.8869 10.828 36.4016 10.828C35.9163 10.828 35.5103 10.9913 35.1836 11.318C34.8663 11.6353 34.6423 12.0366 34.5116 12.522C34.3903 13.0073 34.3296 13.5626 34.3296 14.188C34.3296 15.168 34.4976 15.9753 34.8336 16.61ZM45.5723 18.85V17.352H44.4523V15.994H45.5723V14.902H44.4523V13.166H45.5723V8.85397H48.7643C50.0523 8.85397 50.9903 9.11531 51.5783 9.63797C52.1756 10.1606 52.4743 10.8793 52.4743 11.794C52.4743 12.3353 52.3529 12.844 52.1103 13.32C51.8676 13.796 51.4616 14.1786 50.8923 14.468C50.3323 14.7573 49.5669 14.902 48.5963 14.902H47.6863V15.994H49.8423V17.352H47.6863V18.85H45.5723ZM47.6863 13.166H48.3863C48.9836 13.166 49.4549 13.0633 49.8003 12.858C50.1549 12.6526 50.3323 12.3213 50.3323 11.864C50.3323 11.0146 49.7723 10.59 48.6523 10.59H47.6863V13.166Z" fill="#2C2C2C"/>
<path d="M25.0057 13.4561L22.997 9.01263C22.9458 8.89789 22.86 8.79999 22.7505 8.73114C22.641 8.66228 22.5125 8.62551 22.3811 8.62541H20.3724V7.35585C20.3724 7.1875 20.3019 7.02604 20.1763 6.90699C20.0507 6.78795 19.8804 6.72107 19.7028 6.72107H6.98132C6.80374 6.72107 6.63344 6.78795 6.50788 6.90699C6.38231 7.02604 6.31177 7.1875 6.31177 7.35585V18.1471C6.31177 18.3155 6.38231 18.4769 6.50788 18.596C6.63344 18.715 6.80374 18.7819 6.98132 18.7819H8.41417C8.56835 19.3198 8.90495 19.7946 9.37203 20.1332C9.8391 20.4717 10.4107 20.6551 10.9986 20.6551C11.5866 20.6551 12.1582 20.4717 12.6253 20.1332C13.0923 19.7946 13.4289 19.3198 13.5831 18.7819H17.7879C17.9421 19.3198 18.2787 19.7946 18.7458 20.1332C19.2129 20.4717 19.7845 20.6551 20.3724 20.6551C20.9603 20.6551 21.5319 20.4717 21.999 20.1332C22.4661 19.7946 22.8027 19.3198 22.9569 18.7819H24.3897C24.5673 18.7819 24.7376 18.715 24.8632 18.596C24.9887 18.4769 25.0593 18.3155 25.0593 18.1471V13.7037C25.0591 13.6186 25.0409 13.5344 25.0057 13.4561ZM20.3724 9.89497H21.9391L23.372 13.0689H20.3724V9.89497ZM10.9986 19.4167C10.7338 19.4167 10.4749 19.3422 10.2547 19.2027C10.0345 19.0632 9.86282 18.8649 9.76147 18.633C9.66012 18.401 9.6336 18.1457 9.68527 17.8994C9.73694 17.6532 9.86447 17.4269 10.0518 17.2494C10.239 17.0718 10.4776 16.9509 10.7374 16.9019C10.9972 16.853 11.2664 16.8781 11.5111 16.9742C11.7558 17.0703 11.9649 17.233 12.1121 17.4418C12.2592 17.6506 12.3378 17.896 12.3378 18.1471C12.3378 18.4838 12.1967 18.8067 11.9455 19.0448C11.6944 19.2829 11.3538 19.4167 10.9986 19.4167ZM17.7879 17.5123H13.5831C13.4289 16.9744 13.0923 16.4996 12.6253 16.1611C12.1582 15.8225 11.5866 15.6391 10.9986 15.6391C10.4107 15.6391 9.8391 15.8225 9.37203 16.1611C8.90495 16.4996 8.56835 16.9744 8.41417 17.5123H7.65087V7.99063H19.0333V15.9635C18.7284 16.1312 18.4614 16.3544 18.2477 16.6202C18.034 16.886 17.8778 17.1892 17.7879 17.5123ZM20.3724 19.4167C20.1075 19.4167 19.8486 19.3422 19.6284 19.2027C19.4082 19.0632 19.2366 18.8649 19.1352 18.633C19.0339 18.401 19.0073 18.1457 19.059 17.8994C19.1107 17.6532 19.2382 17.4269 19.4255 17.2494C19.6128 17.0718 19.8514 16.9509 20.1111 16.9019C20.3709 16.853 20.6402 16.8781 20.8848 16.9742C21.1295 17.0703 21.3387 17.233 21.4858 17.4418C21.633 17.6506 21.7115 17.896 21.7115 18.1471C21.7115 18.4838 21.5704 18.8067 21.3193 19.0448C21.0682 19.2829 20.7275 19.4167 20.3724 19.4167ZM23.7202 17.5123H22.9569C22.8088 16.9687 22.4748 16.4868 22.0072 16.1423C21.5396 15.7977 20.9647 15.6098 20.3724 15.608V14.3384H23.7202V17.5123Z" fill="#2C2C2C" stroke="#2C2C2C" stroke-width="0.4"/>
</svg>
