<svg width="180" height="48" viewBox="0 0 180 48" fill="none" xmlns="http://www.w3.org/2000/svg">
<path d="M22.8557 0.8297V23.4052H0.58727V0.8297H22.8557ZM23.4429 0.233398H0V24.0005H23.4438V0.233398H23.4429Z" fill="#979797"/>
<path d="M46.2976 0.8297V23.4052H24.0311V0.8297H46.2976ZM46.8849 0.233398H23.4429V24.0005H46.8849V0.233398Z" fill="#979797"/>
<path d="M22.8557 24.596V47.1715H0.58727V24.596H22.8557ZM23.4429 24.0006H0V47.7668H23.4438V24.0006H23.4429Z" fill="#979797"/>
<path d="M46.2976 24.5959V47.1713H24.0311V24.5959H46.2976ZM46.8849 24.0005H23.4429V47.7667H46.8849V24.0005Z" fill="#979797"/>
<path d="M7.38574 30.2544H14.8699V31.5595H8.69082V35.6997H14.8167V36.9958H8.69082V42.189H14.8167V43.4941H7.38574V30.2544Z" fill="#979797"/>
<path d="M27.7322 43.4941L29.5877 30.2544H29.8008L35.1098 41.118L40.3656 30.2544H40.5787L42.452 43.4941H41.1647L39.8862 34.0256L35.2696 43.4941H34.9412L30.2624 33.9536L28.9929 43.4941H27.7322Z" fill="#979797"/>
<path d="M6.38232 5.94055H7.80281L12.1264 16.1741L16.5299 5.94055H17.9504L12.2685 19.1803H11.9844L6.38232 5.94055Z" fill="#979797"/>
<path d="M30.9707 16.7145L32.0805 16.0395C32.8617 17.4976 33.7643 18.2266 34.7883 18.2266C35.2263 18.2266 35.6376 18.1246 36.0223 17.9206C36.407 17.7106 36.7 17.4316 36.9012 17.0835C37.1025 16.7355 37.2031 16.3665 37.2031 15.9765C37.2031 15.5324 37.0551 15.0974 36.7592 14.6714C36.3508 14.0834 35.605 13.3753 34.5219 12.5473C33.4329 11.7132 32.7552 11.1102 32.4889 10.7382C32.0272 10.1142 31.7964 9.43912 31.7964 8.71308C31.7964 8.13705 31.9325 7.61202 32.2048 7.13799C32.477 6.66397 32.8588 6.29195 33.35 6.02193C33.8472 5.74592 34.3858 5.60791 34.9658 5.60791C35.5814 5.60791 36.1555 5.76392 36.6882 6.07594C37.2268 6.38195 37.795 6.94898 38.3928 7.77703L37.3274 8.59607C36.8361 7.93604 36.4159 7.50101 36.0667 7.291C35.7234 7.08099 35.3476 6.97598 34.9392 6.97598C34.4124 6.97598 33.9804 7.13799 33.643 7.46201C33.3116 7.78603 33.1458 8.18505 33.1458 8.65908C33.1458 8.94709 33.205 9.22611 33.3234 9.49612C33.4418 9.76614 33.6578 10.0602 33.9715 10.3782C34.1431 10.5462 34.7054 10.9872 35.6583 11.7012C36.7888 12.5473 37.5641 13.3003 37.9844 13.9604C38.4046 14.6204 38.6147 15.2834 38.6147 15.9495C38.6147 16.9095 38.2537 17.7436 37.5316 18.4516C36.8154 19.1596 35.9424 19.5137 34.9126 19.5137C34.1195 19.5137 33.4003 19.3007 32.7552 18.8746C32.1101 18.4426 31.5152 17.7226 30.9707 16.7145Z" fill="#979797"/>
<path d="M56.4431 0.912598H82.5048V5.42639H60.9885V22.2469H82.3198V26.7617H60.9885V42.5035H82.3198V47.0163H56.4431V0.912598Z" fill="#979797"/>
<path d="M93.7771 47.0163V0.912598H103.207C110.007 0.912598 114.944 1.46691 118.014 2.57272C122.425 4.1414 125.873 6.85695 128.357 10.7212C130.839 14.5883 132.08 19.1945 132.08 24.5444C132.08 29.1618 131.098 33.2267 129.129 36.7355C127.161 40.247 124.604 42.8366 121.463 44.5089C118.318 46.1811 113.914 47.0163 108.244 47.0163H93.7771ZM98.1356 42.6602H103.392C109.678 42.6602 114.036 42.2636 116.469 41.4704C119.89 40.3432 122.581 38.3135 124.538 35.3796C126.497 32.4457 127.474 28.8613 127.474 24.6228C127.474 20.1753 126.415 16.3772 124.29 13.224C122.167 10.0708 119.208 7.91144 115.417 6.74124C112.573 5.86591 107.884 5.42732 101.35 5.42732H98.1356V42.6602Z" fill="#979797"/>
<path d="M157.042 0.912598L178.25 47.0163H173.342L166.19 31.8475H146.598L139.512 47.0163H134.442L155.929 0.912598H157.042ZM156.469 10.7082L148.676 27.3962H164.225L156.469 10.7082Z" fill="#979797"/>
</svg>
