<svg width="59" height="58" viewBox="0 0 59 58" fill="none" xmlns="http://www.w3.org/2000/svg">
<ellipse cx="29.1519" cy="29.0285" rx="28.9241" ry="28.9286" fill="#9CCB3B"/>
<path d="M24.8186 34.8286H22.0106V31.2046H14.3786V28.9486L20.9546 18.8206H24.8186V28.7326H26.9546V31.2046H24.8186V34.8286ZM22.0106 28.7326V21.3406L17.1386 28.7326H22.0106ZM31.7325 34.6126C31.3965 34.9326 31.0045 35.0926 30.5565 35.0926C30.1085 35.0926 29.7165 34.9326 29.3805 34.6126C29.0445 34.2766 28.8765 33.8766 28.8765 33.4126C28.8765 32.9486 29.0445 32.5566 29.3805 32.2366C29.7165 31.9006 30.1085 31.7326 30.5565 31.7326C31.0045 31.7326 31.3965 31.9006 31.7325 32.2366C32.0685 32.5566 32.2365 32.9486 32.2365 33.4126C32.2365 33.8766 32.0685 34.2766 31.7325 34.6126ZM37.7998 34.8286H34.7278L40.7758 21.2926H32.4718V18.8206H44.0158V20.7646L37.7998 34.8286Z" fill="white"/>
</svg>
