<svg width="111" height="29" viewBox="0 0 111 29" fill="none" xmlns="http://www.w3.org/2000/svg">
<rect x="0.816956" y="0.221558" width="110.142" height="27.8198" rx="4" fill="#F4F4F4"/>
<path d="M36.4002 17.85H29.6382V16.562C31.5889 15.0873 32.9142 13.9953 33.6142 13.286C34.3236 12.5673 34.6782 11.8906 34.6782 11.256C34.6782 10.7986 34.5102 10.4486 34.1742 10.206C33.8476 9.95398 33.4509 9.82798 32.9842 9.82798C31.9576 9.82798 31.1176 10.2013 30.4642 10.948L29.5122 9.86997C29.9136 9.38464 30.4176 9.01597 31.0242 8.76397C31.6402 8.50264 32.2842 8.37197 32.9562 8.37197C33.9082 8.37197 34.7109 8.62864 35.3642 9.14198C36.0176 9.65531 36.3442 10.36 36.3442 11.256C36.3442 12.0586 36.0082 12.8566 35.3362 13.65C34.6642 14.4433 33.6376 15.3626 32.2562 16.408H36.4002V17.85ZM43.2564 17.598C42.7617 17.878 42.2017 18.018 41.5764 18.018C40.9511 18.018 40.3911 17.878 39.8964 17.598C39.4017 17.318 39.0097 16.9446 38.7204 16.478C38.4311 16.0113 38.2117 15.498 38.0624 14.938C37.9131 14.378 37.8384 13.7946 37.8384 13.188C37.8384 12.5813 37.9131 11.998 38.0624 11.438C38.2117 10.878 38.4311 10.3693 38.7204 9.91198C39.0097 9.44531 39.4017 9.07198 39.8964 8.79198C40.3911 8.51198 40.9511 8.37197 41.5764 8.37197C42.2017 8.37197 42.7617 8.51198 43.2564 8.79198C43.7511 9.07198 44.1431 9.44531 44.4324 9.91198C44.7217 10.3693 44.9411 10.878 45.0904 11.438C45.2397 11.998 45.3144 12.5813 45.3144 13.188C45.3144 13.7946 45.2397 14.378 45.0904 14.938C44.9411 15.498 44.7217 16.0113 44.4324 16.478C44.1431 16.9446 43.7511 17.318 43.2564 17.598ZM40.0084 15.61C40.3444 16.2446 40.8671 16.562 41.5764 16.562C42.2857 16.562 42.8084 16.2446 43.1444 15.61C43.4804 14.9753 43.6484 14.168 43.6484 13.188C43.6484 12.5626 43.5831 12.0073 43.4524 11.522C43.3311 11.0366 43.1071 10.6353 42.7804 10.318C42.4631 9.99131 42.0617 9.82798 41.5764 9.82798C41.0911 9.82798 40.6851 9.99131 40.3584 10.318C40.0411 10.6353 39.8171 11.0366 39.6864 11.522C39.5651 12.0073 39.5044 12.5626 39.5044 13.188C39.5044 14.168 39.6724 14.9753 40.0084 15.61ZM49.6714 15.092H46.3114V13.832H49.6714V15.092ZM53.9526 18.018C53.1593 18.018 52.4546 17.878 51.8386 17.598C51.232 17.318 50.7606 16.954 50.4246 16.506L51.3066 15.428C51.6053 15.7733 51.988 16.0486 52.4546 16.254C52.9213 16.4593 53.402 16.562 53.8966 16.562C54.5033 16.562 54.9793 16.436 55.3246 16.184C55.67 15.9226 55.8426 15.5726 55.8426 15.134C55.8426 14.2566 55.152 13.818 53.7706 13.818C53.1453 13.818 52.786 13.8226 52.6926 13.832V12.362C52.8046 12.3713 53.164 12.376 53.7706 12.376C54.3493 12.376 54.8113 12.2733 55.1566 12.068C55.5113 11.8626 55.6886 11.5546 55.6886 11.144C55.6886 10.724 55.5113 10.402 55.1566 10.178C54.802 9.94464 54.3493 9.82798 53.7986 9.82798C52.884 9.82798 52.0813 10.1733 51.3906 10.864L50.5506 9.84198C51.3813 8.86198 52.5153 8.37197 53.9526 8.37197C54.97 8.37197 55.7866 8.60064 56.4026 9.05798C57.0186 9.50598 57.3266 10.1173 57.3266 10.892C57.3266 11.4706 57.1213 11.9513 56.7106 12.334C56.3093 12.7073 55.838 12.9406 55.2966 13.034C55.8286 13.0806 56.3233 13.3046 56.7806 13.706C57.238 14.1073 57.4666 14.6393 57.4666 15.302C57.4666 16.1046 57.1446 16.758 56.5006 17.262C55.866 17.766 55.0166 18.018 53.9526 18.018ZM64.1197 17.598C63.625 17.878 63.065 18.018 62.4397 18.018C61.8144 18.018 61.2544 17.878 60.7597 17.598C60.265 17.318 59.873 16.9446 59.5837 16.478C59.2944 16.0113 59.075 15.498 58.9257 14.938C58.7764 14.378 58.7017 13.7946 58.7017 13.188C58.7017 12.5813 58.7764 11.998 58.9257 11.438C59.075 10.878 59.2944 10.3693 59.5837 9.91198C59.873 9.44531 60.265 9.07198 60.7597 8.79198C61.2544 8.51198 61.8144 8.37197 62.4397 8.37197C63.065 8.37197 63.625 8.51198 64.1197 8.79198C64.6144 9.07198 65.0064 9.44531 65.2957 9.91198C65.585 10.3693 65.8044 10.878 65.9537 11.438C66.103 11.998 66.1777 12.5813 66.1777 13.188C66.1777 13.7946 66.103 14.378 65.9537 14.938C65.8044 15.498 65.585 16.0113 65.2957 16.478C65.0064 16.9446 64.6144 17.318 64.1197 17.598ZM60.8717 15.61C61.2077 16.2446 61.7304 16.562 62.4397 16.562C63.149 16.562 63.6717 16.2446 64.0077 15.61C64.3437 14.9753 64.5117 14.168 64.5117 13.188C64.5117 12.5626 64.4464 12.0073 64.3157 11.522C64.1944 11.0366 63.9704 10.6353 63.6437 10.318C63.3264 9.99131 62.925 9.82798 62.4397 9.82798C61.9544 9.82798 61.5484 9.99131 61.2217 10.318C60.9044 10.6353 60.6804 11.0366 60.5497 11.522C60.4284 12.0073 60.3677 12.5626 60.3677 13.188C60.3677 14.168 60.5357 14.9753 60.8717 15.61ZM78.8763 17.85H77.4063V13.146L75.3903 17.85H74.8023L72.7723 13.146V17.85H71.3023V11.088H73.2203L75.0963 15.456L76.9443 11.088H78.8763V17.85ZM82.191 17.85H80.777V11.088H82.247V15.638L85.355 11.088H86.825V17.85H85.355V13.174L82.191 17.85ZM90.204 17.85H88.734V11.088H90.204V13.748H93.312V11.088H94.782V17.85H93.312V15.036H90.204V17.85Z" fill="#2C2C2C"/>
<path d="M17.3187 7.22498C14.0103 7.22498 11.3187 9.91658 11.3187 13.225C11.3187 16.5334 14.0103 19.225 17.3187 19.225C20.6271 19.225 23.3187 16.5334 23.3187 13.225C23.3187 9.91658 20.6271 7.22498 17.3187 7.22498ZM17.3187 18.025C14.6721 18.025 12.5187 15.8716 12.5187 13.225C12.5187 10.5784 14.6721 8.42498 17.3187 8.42498C19.9653 8.42498 22.1187 10.5784 22.1187 13.225C22.1187 15.8716 19.9653 18.025 17.3187 18.025Z" fill="#2C2C2C" stroke="#2C2C2C" stroke-width="0.4"/>
<path d="M17.9191 10.2261H16.7191V13.4745L18.6949 15.4503L19.5433 14.6019L17.9191 12.9777V10.2261Z" fill="#2C2C2C" stroke="#2C2C2C" stroke-width="0.4"/>
</svg>
