<svg width="36" height="36" viewBox="0 0 36 36" fill="none" xmlns="http://www.w3.org/2000/svg">
<path d="M36 18C36 27.9425 27.9425 36 18 36C8.05749 36 0 27.9385 0 18C0 8.05749 8.05749 0 18 0C27.9425 0 36 8.05749 36 18Z" fill="#979797"/>
<path fill-rule="evenodd" clip-rule="evenodd" d="M17.3178 25.8932H18.7295C18.7295 25.8932 19.1547 25.8451 19.3753 25.6125C19.5758 25.3959 19.5678 24.9908 19.5678 24.9908C19.5678 24.9908 19.5397 23.0938 20.418 22.817C21.2843 22.5403 22.3993 24.6499 23.5785 25.4601C24.4728 26.0737 25.1507 25.9414 25.1507 25.9414L28.3071 25.8972C28.3071 25.8972 29.9595 25.797 29.1734 24.4975C29.1092 24.3892 28.7162 23.5389 26.8271 21.7823C24.8499 19.9454 25.1146 20.2422 27.4969 17.0657C28.9488 15.1325 29.5303 13.9494 29.3499 13.444C29.1774 12.9627 28.1105 13.0911 28.1105 13.0911L24.5571 13.1151C24.5571 13.1151 24.2924 13.0791 24.0999 13.1954C23.9073 13.3117 23.787 13.5764 23.787 13.5764C23.787 13.5764 23.2255 15.0764 22.4755 16.3478C20.8953 19.0349 20.2616 19.1753 20.0009 19.0109C19.3993 18.6218 19.5517 17.4467 19.5517 16.6125C19.5517 14.0095 19.9448 12.9226 18.7817 12.6419C18.3966 12.5496 18.1119 12.4855 17.1253 12.4774C15.8579 12.4654 14.783 12.4815 14.1734 12.7783C13.7683 12.9748 13.4555 13.416 13.648 13.444C13.8846 13.4761 14.418 13.5884 14.6988 13.9734C15.0638 14.4668 15.0517 15.5817 15.0517 15.5817C15.0517 15.5817 15.2603 18.6459 14.5624 19.0269C14.0811 19.2876 13.4274 18.7542 12.0156 16.3157C11.2937 15.0684 10.7482 13.6887 10.7482 13.6887C10.7482 13.6887 10.644 13.432 10.4555 13.2916C10.2269 13.1232 9.91001 13.071 9.91001 13.071L6.53301 13.0911C6.53301 13.0911 6.02365 13.1071 5.83916 13.3277C5.67472 13.5242 5.82712 13.9293 5.82712 13.9293C5.82712 13.9293 8.46215 20.1058 11.4581 23.2221C14.2015 26.0817 17.3178 25.8932 17.3178 25.8932Z" fill="white"/>
</svg>
